<svg width="16" height="16" viewBox="0 0 16 16" fill="none" xmlns="http://www.w3.org/2000/svg">
<path fill-rule="evenodd" clip-rule="evenodd" d="M0 1C0 0.447715 0.447715 0 1 0H15C15.5523 0 16 0.447715 16 1V15C16 15.5523 15.5523 16 15 16H1C0.447715 16 0 15.5523 0 15V1ZM2.90909 5.81818C2.90909 5.41652 3.2347 5.09091 3.63636 5.09091H9.45455C9.85621 5.09091 10.1818 5.41652 10.1818 5.81818C10.1818 6.21984 9.85621 6.54545 9.45455 6.54545H3.63636C3.2347 6.54545 2.90909 6.21984 2.90909 5.81818ZM3.63636 9.45455C3.2347 9.45455 2.90909 9.78016 2.90909 10.1818C2.90909 10.5835 3.2347 10.9091 3.63636 10.9091H12.3636C12.7653 10.9091 13.0909 10.5835 13.0909 10.1818C13.0909 9.78016 12.7653 9.45455 12.3636 9.45455H3.63636Z" fill="white"/>
</svg>
