<svg width="24" height="24" viewBox="0 0 24 24" fill="none" xmlns="http://www.w3.org/2000/svg">
<path d="M8.06989 20.74C7.4935 20.742 6.9295 20.5728 6.44942 20.2538C5.96935 19.9348 5.59482 19.4804 5.37333 18.9483C5.15184 18.4161 5.09337 17.8302 5.20533 17.2648C5.3173 16.6994 5.59465 16.1799 6.00222 15.7724C6.4098 15.3648 6.92922 15.0874 7.49464 14.9755C8.06005 14.8635 8.64598 14.922 9.17812 15.1435C9.71026 15.365 10.1646 15.7395 10.4836 16.2196C10.8026 16.6996 10.9719 17.2636 10.9699 17.84C10.9699 18.6092 10.6644 19.3468 10.1205 19.8906C9.57664 20.4345 8.83901 20.74 8.06989 20.74ZM8.06989 16.43C7.7906 16.428 7.51701 16.5091 7.28383 16.6628C7.05064 16.8165 6.86836 17.036 6.76011 17.2935C6.65185 17.5509 6.6225 17.8348 6.67577 18.1089C6.72904 18.3831 6.86254 18.6353 7.05932 18.8335C7.25611 19.0317 7.50733 19.1669 7.78111 19.2222C8.05489 19.2774 8.33891 19.25 8.59713 19.1436C8.85536 19.0372 9.07617 18.8565 9.23155 18.6244C9.38693 18.3923 9.46988 18.1193 9.46989 17.84C9.4699 17.4678 9.32272 17.1107 9.06045 16.8465C8.79818 16.5824 8.44211 16.4327 8.06989 16.43Z" fill="black"/>
<path d="M15.28 20.74C14.7036 20.742 14.1396 20.5728 13.6595 20.2538C13.1794 19.9348 12.8049 19.4804 12.5834 18.9483C12.3619 18.4161 12.3035 17.8302 12.4154 17.2648C12.5274 16.6994 12.8047 16.1799 13.2123 15.7724C13.6199 15.3648 14.1393 15.0874 14.7047 14.9755C15.2701 14.8635 15.8561 14.922 16.3882 15.1435C16.9203 15.365 17.3747 15.7395 17.6937 16.2196C18.0127 16.6996 18.1819 17.2636 18.18 17.84C18.18 18.2209 18.105 18.598 17.9592 18.9498C17.8135 19.3017 17.5999 19.6213 17.3306 19.8906C17.0613 20.1599 16.7416 20.3735 16.3898 20.5193C16.0379 20.665 15.6608 20.74 15.28 20.74ZM15.28 16.43C15.0007 16.428 14.7271 16.5091 14.4939 16.6628C14.2607 16.8165 14.0784 17.036 13.9702 17.2935C13.8619 17.5509 13.8326 17.8348 13.8859 18.1089C13.9391 18.3831 14.0726 18.6353 14.2694 18.8335C14.4662 19.0317 14.7174 19.1669 14.9912 19.2222C15.265 19.2774 15.549 19.25 15.8072 19.1436C16.0654 19.0372 16.2862 18.8565 16.4416 18.6244C16.597 18.3923 16.68 18.1193 16.68 17.84C16.68 17.4678 16.5328 17.1107 16.2705 16.8465C16.0083 16.5824 15.6522 16.4327 15.28 16.43Z" fill="black"/>
<path d="M13.13 18.59H10.22C10.0211 18.59 9.83029 18.5109 9.68964 18.3703C9.54899 18.2296 9.46997 18.0389 9.46997 17.84C9.46997 17.6411 9.54899 17.4503 9.68964 17.3096C9.83029 17.169 10.0211 17.09 10.22 17.09H13.13C13.3289 17.09 13.5196 17.169 13.6603 17.3096C13.801 17.4503 13.88 17.6411 13.88 17.84C13.88 18.0389 13.801 18.2296 13.6603 18.3703C13.5196 18.5109 13.3289 18.59 13.13 18.59Z" fill="black"/>
<path d="M3.83995 14.76C3.69902 14.7589 3.56109 14.7192 3.44119 14.6451C3.32128 14.5711 3.224 14.4655 3.15995 14.34C3.07398 14.1609 3.06255 13.9551 3.12817 13.7676C3.19378 13.5801 3.33108 13.4264 3.50995 13.34C6.09181 12.2454 8.87629 11.7103 11.6799 11.77H11.8899C12.0889 11.77 12.2796 11.849 12.4203 11.9897C12.5609 12.1303 12.6399 12.3211 12.6399 12.52C12.6399 12.7189 12.5609 12.9097 12.4203 13.0503C12.2796 13.191 12.0889 13.27 11.8899 13.27H11.6899C9.11388 13.2285 6.55601 13.7081 4.16995 14.68C4.06974 14.7374 3.9553 14.7651 3.83995 14.76Z" fill="black"/>
<path d="M19.9199 14.76C19.8079 14.7632 19.6972 14.7355 19.5999 14.68C17.1582 13.6712 14.5306 13.1907 11.8899 13.27C11.691 13.27 11.5002 13.1909 11.3596 13.0503C11.2189 12.9096 11.1399 12.7189 11.1399 12.52C11.1399 12.321 11.2189 12.1303 11.3596 11.9896C11.5002 11.849 11.691 11.77 11.8899 11.77C14.7647 11.6701 17.6262 12.2062 20.2699 13.34C20.4488 13.4263 20.5861 13.5801 20.6517 13.7676C20.7173 13.9551 20.7059 14.1609 20.6199 14.34C20.5543 14.4685 20.4539 14.5761 20.3301 14.6504C20.2064 14.7246 20.0642 14.7626 19.9199 14.76Z" fill="black"/>
<path d="M6.59992 11.27H6.50992C6.41203 11.2577 6.31753 11.2261 6.23185 11.1772C6.14617 11.1283 6.07099 11.0629 6.01061 10.9849C5.95023 10.9069 5.90583 10.8177 5.87998 10.7225C5.85412 10.6272 5.8473 10.5279 5.85992 10.43C5.99992 9.23001 6.93992 3.26001 9.70992 3.26001H11.9999C12.1988 3.26001 12.3896 3.33903 12.5302 3.47968C12.6709 3.62033 12.7499 3.8111 12.7499 4.01001C12.7499 4.20892 12.6709 4.39969 12.5302 4.54034C12.3896 4.68099 12.1988 4.76001 11.9999 4.76001H9.70992C8.76992 4.76001 7.70992 7.85001 7.34992 10.62C7.32556 10.8011 7.23591 10.9671 7.09781 11.0868C6.95971 11.2065 6.78266 11.2716 6.59992 11.27Z" fill="black"/>
<path d="M17.1599 11.27C16.9772 11.2716 16.8001 11.2065 16.662 11.0868C16.5239 10.9671 16.4343 10.8011 16.4099 10.62C16.0499 7.85001 14.9999 4.76001 14.0499 4.76001H11.7999C11.601 4.76001 11.4102 4.68099 11.2696 4.54034C11.1289 4.39969 11.0499 4.20892 11.0499 4.01001C11.0499 3.8111 11.1289 3.62033 11.2696 3.47968C11.4102 3.33903 11.601 3.26001 11.7999 3.26001H14.0499C16.7499 3.26001 17.6799 8.74001 17.8999 10.42C17.9125 10.5179 17.9057 10.6172 17.8799 10.7125C17.854 10.8077 17.8096 10.8969 17.7492 10.9749C17.6889 11.0529 17.6137 11.1183 17.528 11.1672C17.4423 11.2161 17.3478 11.2477 17.2499 11.26L17.1599 11.27Z" fill="black"/>
</svg>
