<svg width="22" height="22" viewBox="0 0 22 22" fill="none" xmlns="http://www.w3.org/2000/svg">
<path fill-rule="evenodd" clip-rule="evenodd" d="M0 1C0 0.447716 0.447715 0 1 0H21C21.5523 0 22 0.447715 22 1V21C22 21.5523 21.5523 22 21 22H1C0.447716 22 0 21.5523 0 21V1ZM17 16.8889C17 17.1836 16.8736 17.4662 16.6485 17.6746C16.4235 17.8829 16.1183 18 15.8 18H6.2C5.88174 18 5.57652 17.8829 5.35147 17.6746C5.12643 17.4662 5 17.1836 5 16.8889V9.11111C5 8.81643 5.12643 8.53381 5.35147 8.32544C5.57652 8.11706 5.88174 8 6.2 8H9.2L10.4 9.66667H15.8C16.1183 9.66667 16.4235 9.78373 16.6485 9.9921C16.8736 10.2005 17 10.4831 17 10.7778V16.8889ZM6 4C5.44772 4 5 4.44772 5 5C5 5.55228 5.44771 6 6 6H16C16.5523 6 17 5.55228 17 5C17 4.44772 16.5523 4 16 4H6Z" fill="white"/>
</svg>
