<svg width="32" height="32" viewBox="0 0 32 32" fill="none" xmlns="http://www.w3.org/2000/svg">
<path d="M2.66675 12.585L14.3342 3.25098C15.3081 2.47184 16.6921 2.47184 17.6659 3.25098L29.3334 12.585" stroke="#CDCDCD" stroke-width="2" stroke-linecap="round" stroke-linejoin="round"/>
<path d="M12.6368 4.65082L7.30343 8.98415C6.33509 9.77093 5.85092 10.1643 5.59208 10.7081C5.33325 11.2519 5.33325 11.8758 5.33325 13.1234V17.9182C5.33325 22.9465 5.33325 25.4608 6.89534 27.0228C8.45745 28.5849 10.9716 28.5849 15.9999 28.5849C21.0282 28.5849 23.5425 28.5849 25.1045 27.0228C26.6666 25.4608 26.6666 22.9465 26.6666 17.9182V13.1234C26.6666 11.8758 26.6666 11.2519 26.4078 10.7081C26.1489 10.1643 25.6647 9.77093 24.6965 8.98415L19.3631 4.65082C17.7522 3.34194 16.9467 2.6875 15.9999 2.6875C15.0531 2.6875 14.2477 3.34194 12.6368 4.65082Z" stroke="#CDCDCD" stroke-width="2"/>
<path d="M13 20.9183H19" stroke="#CDCDCD" stroke-width="2" stroke-linecap="round"/>
</svg>
