<svg width="32" height="32" viewBox="0 0 32 32" fill="none" xmlns="http://www.w3.org/2000/svg">
<path d="M5.27324 6.74809C4.00003 8.50053 4.00003 11.0004 4.00003 16C4.00003 20.9996 3.95925 23.4995 5.23247 25.2519C5.64367 25.8179 6.14139 26.3156 6.70735 26.7268C8.45979 28 11.0004 28 16 28C20.9996 28 23.4995 28 25.2519 26.7268C25.8179 26.3156 26.3156 25.8179 26.7268 25.2519C28 23.4995 28 20.9996 28 16C28 11.0004 28 8.50053 26.7268 6.74809C26.3156 6.18213 25.8179 5.68441 25.2519 5.27321C23.4995 4 20.9996 4 16 4C11.0004 4 8.50056 4 6.74812 5.27321C6.18216 5.68441 5.68444 6.18213 5.27324 6.74809Z" stroke="#CDCDCD" stroke-width="2" stroke-linejoin="round"/>
<path d="M10.3333 19H17.6666" stroke="#CDCDCD" stroke-width="2" stroke-linecap="round"/>
<path d="M10.3333 13.6666H21.6666" stroke="#CDCDCD" stroke-width="2" stroke-linecap="round"/>
</svg>
