<svg width="526" height="263" viewBox="0 0 526 263" fill="none" xmlns="http://www.w3.org/2000/svg">
<g clip-path="url(#clip0_896_560)">
<path d="M0.0493164 157.8V105.2C78.5192 105.2 156.989 105.209 235.459 105.225C236.486 105.225 236.731 105.001 236.731 103.961C236.698 69.3056 236.689 34.6499 236.704 -0.00585938H289.294V103.859C289.294 105.2 289.294 105.2 290.642 105.2H525.949V157.8C447.48 157.8 369.014 157.793 290.549 157.78C289.522 157.78 289.277 158.004 289.277 159.043C289.31 193.699 289.319 228.355 289.304 263.011H236.704V159.142C236.704 157.8 236.704 157.8 235.356 157.8H0.0493164Z" fill="#C7102E"/>
<path d="M236.704 0.000304436C236.704 34.656 236.713 69.3118 236.731 103.967C236.731 105.007 236.48 105.231 235.459 105.231C156.988 105.204 78.5178 105.195 0.0493164 105.206V87.7416C0.493129 87.7252 0.936938 87.6923 1.38075 87.6923H116.193C115.98 87.4422 115.714 87.2434 115.414 87.1108C77.2665 68.0296 39.1178 48.9512 0.967756 29.8755C0.690373 29.7378 0.435598 29.4152 0.0493164 29.596V19.7335C0.560934 19.7335 0.936939 20.0602 1.35609 20.2698C45.9469 42.559 90.5337 64.8565 135.116 87.1622C135.815 87.5229 136.59 87.7083 137.376 87.7026C149.598 87.6889 161.819 87.6855 174.04 87.6923H174.981C174.676 87.3809 174.316 87.1287 173.919 86.9485C117.723 58.8486 61.5276 30.7466 5.33191 2.64263C3.62857 1.78994 1.87181 1.03792 0.26093 0.00852181H59.0147C59.3353 0.195498 59.6476 0.403021 59.9804 0.569451C112.661 26.9092 165.345 53.2489 218.031 79.5886C218.385 79.7653 218.705 80.055 219.192 80.0201V78.7873C219.192 52.9338 219.192 27.0804 219.192 1.22695C219.192 0.816016 219.223 0.405078 219.241 -0.00585938L236.704 0.000304436Z" fill="#FEFEFE"/>
<path d="M289.294 263C289.294 228.345 289.285 193.689 289.268 159.033C289.268 157.993 289.518 157.77 290.539 157.77C369.011 157.796 447.48 157.804 525.949 157.794V175.259C525.505 175.278 525.063 175.308 524.62 175.308H409.89C410.112 175.587 410.399 175.808 410.726 175.949C448.822 195.014 486.925 214.072 525.037 233.123C525.314 233.263 525.561 233.592 525.949 233.413V243.275C525.474 243.288 525.127 242.973 524.739 242.78C480.114 220.474 435.496 198.161 390.884 175.841C390.185 175.482 389.41 175.299 388.624 175.306C376.404 175.321 364.184 175.325 351.964 175.317H351.027C351.334 175.627 351.696 175.88 352.094 176.06C409.666 204.849 467.236 233.638 524.805 262.427C525.129 262.589 525.52 262.665 525.743 263H466.992C466.702 262.828 466.423 262.637 466.125 262.487C413.374 236.104 360.621 209.723 307.867 183.342C307.55 183.184 307.25 182.892 306.808 182.987V184.22C306.808 210.072 306.808 235.924 306.808 261.776C306.808 262.187 306.778 262.598 306.761 263.009L289.294 263Z" fill="#FEFEFE"/>
<path d="M525.949 105.2H290.642C289.294 105.2 289.294 105.2 289.294 103.858V0H306.759C306.775 0.410938 306.806 0.821875 306.806 1.23281C306.806 27.1219 306.806 53.0109 306.806 78.9V80.176C307.289 79.9438 307.628 79.7897 307.957 79.6233C357.903 54.6424 407.851 29.6642 457.801 4.6888C460.883 3.14983 463.932 1.56362 466.998 0H486.517C486.312 0.353406 485.913 0.423264 485.589 0.585584C428.009 29.3827 370.431 58.1764 312.855 86.9667C312.518 87.1373 312.111 87.2338 311.785 87.6838H312.919C325.11 87.6838 337.297 87.6872 349.48 87.6941C350.23 87.6996 350.97 87.5241 351.637 87.1825C409.389 58.2908 467.142 29.4053 524.897 0.526C525.191 0.380117 525.552 0.320531 525.743 0C526.169 0.184922 525.936 0.55682 525.936 0.821875C525.95 10.4104 525.954 19.999 525.949 29.5875C525.56 29.4087 525.316 29.7437 525.036 29.8772C523.44 30.6518 521.858 31.4593 520.272 32.2524C483.756 50.5172 447.241 68.782 410.728 87.0468C410.43 87.1968 410.015 87.2297 409.859 87.6838H524.619C525.063 87.6838 525.505 87.7167 525.949 87.7331V105.2Z" fill="#FEFEFE"/>
<path d="M0.049512 157.8H235.356C236.704 157.8 236.704 157.8 236.704 159.142V263H219.239C219.221 262.589 219.19 262.178 219.19 261.767C219.19 235.878 219.19 209.989 219.19 184.1V182.847C218.693 183.089 218.368 183.258 218.027 183.418C168.091 208.378 118.155 233.345 68.2179 258.318C65.1358 259.859 62.0784 261.439 59.0087 263H39.4892C39.6104 262.713 39.9125 262.686 40.1447 262.569C53.0015 256.131 65.8598 249.697 78.7194 243.267C123.649 220.802 168.578 198.33 213.507 175.851C213.741 175.734 214.123 175.725 214.154 175.316C201.637 175.316 189.134 175.312 176.646 175.304C175.793 175.3 174.952 175.502 174.194 175.894C116.497 204.761 58.7978 233.623 1.09534 262.48C0.799466 262.628 0.441945 262.686 0.242641 263C-0.180625 262.815 0.0515667 262.445 0.049512 262.178C0.0358141 252.59 0.0316927 243.001 0.0371719 233.413C0.425508 233.594 0.678228 233.273 0.955611 233.133C39.107 214.062 77.2557 194.982 115.402 175.894C115.681 175.754 116.069 175.729 116.182 175.316H1.3686C0.926847 175.316 0.483041 175.286 0.0392286 175.267L0.049512 157.8Z" fill="#FEFEFE"/>
<path d="M219.252 0C219.233 0.410938 219.203 0.821875 219.203 1.23281C219.203 27.0849 219.203 52.9383 219.203 78.7932V80.026C218.716 80.0609 218.395 79.7712 218.042 79.5945C165.347 53.2507 112.658 26.9061 59.9745 0.560929C59.6416 0.394499 59.3293 0.186977 59.0088 0H219.252Z" fill="#012169"/>
<path d="M466.992 4.03188e-05C463.926 1.56366 460.883 3.14987 457.801 4.68884C407.853 29.6656 357.905 54.6397 307.959 79.611C307.628 79.7774 307.291 79.9315 306.808 80.1637V78.8795C306.808 52.9904 306.808 27.1014 306.808 1.2123C306.808 0.801367 306.777 0.39043 306.761 -0.0205078L466.992 4.03188e-05Z" fill="#012169"/>
<path d="M59.0088 263C62.0785 261.438 65.1379 259.858 68.2179 258.317C118.155 233.345 168.092 208.375 218.029 183.41C218.362 183.243 218.695 183.081 219.192 182.838V184.108C219.192 209.997 219.192 235.886 219.192 261.775C219.192 262.186 219.223 262.597 219.242 263.008L59.0088 263Z" fill="#012169"/>
<path d="M306.757 263C306.773 262.589 306.804 262.178 306.804 261.767C306.804 235.915 306.804 210.063 306.804 184.211V182.978C307.252 182.884 307.546 183.183 307.862 183.333C360.621 209.72 413.375 236.104 466.125 262.486C466.423 262.636 466.702 262.827 466.992 263H306.757Z" fill="#012169"/>
<path d="M0.254883 263C0.460351 262.688 0.811708 262.628 1.10758 262.48C58.8073 233.616 116.507 204.754 174.207 175.893C174.964 175.502 175.805 175.299 176.658 175.304C189.152 175.322 201.655 175.326 214.166 175.316C214.127 175.727 213.755 175.727 213.519 175.85C168.59 198.329 123.661 220.801 78.7316 243.267C65.872 249.696 53.0138 256.13 40.1569 262.568C39.9247 262.686 39.6227 262.712 39.5015 263H0.254883Z" fill="#C7102E"/>
<path d="M525.743 0C525.552 0.320531 525.191 0.380117 524.897 0.526C467.146 29.4122 409.393 58.2976 351.637 87.1824C350.97 87.5241 350.23 87.6996 349.48 87.6941C337.289 87.6804 325.102 87.6769 312.919 87.6838H311.785C312.111 87.2338 312.518 87.1372 312.855 86.9667C370.43 58.1723 428.005 29.382 485.578 0.595858C485.903 0.433538 486.3 0.363677 486.507 0.0102709L525.743 0Z" fill="#C7102E"/>
<path d="M0.0493164 29.5874C0.435598 29.4066 0.690373 29.7292 0.967756 29.8668C39.1192 48.9384 77.2679 68.0169 115.414 87.1022C115.714 87.2348 115.98 87.4336 116.193 87.6837H1.38075C0.936938 87.6837 0.493129 87.7165 0.0493164 87.733V29.5874Z" fill="#012169"/>
<path d="M0.04942 175.265C0.493233 175.284 0.937039 175.314 1.3788 175.314H116.193C116.08 175.725 115.691 175.752 115.412 175.892C77.2673 194.977 39.1186 214.057 0.965803 233.131C0.68842 233.271 0.435699 233.592 0.0473633 233.411L0.04942 175.265Z" fill="#012169"/>
<path d="M525.949 87.7351C525.505 87.7187 525.063 87.6858 524.619 87.6858H409.859C410.015 87.2317 410.43 87.1989 410.728 87.0489C447.24 68.78 483.752 50.5145 520.263 32.2524C521.85 31.4593 523.432 30.6518 525.028 29.8772C525.308 29.7436 525.552 29.4087 525.941 29.5875L525.949 87.7351Z" fill="#012169"/>
<path d="M525.949 233.413C525.56 233.591 525.314 233.263 525.036 233.123C486.925 214.076 448.821 195.021 410.726 175.957C410.399 175.816 410.111 175.596 409.89 175.316H524.619C525.063 175.316 525.505 175.286 525.949 175.267V233.413Z" fill="#012169"/>
<path d="M525.743 263C525.519 262.665 525.127 262.589 524.804 262.427C467.239 233.635 409.671 204.848 352.1 176.066C351.702 175.886 351.34 175.633 351.033 175.322H351.97C364.191 175.322 376.411 175.319 388.63 175.312C389.415 175.305 390.191 175.488 390.89 175.846C435.504 198.174 480.122 220.487 524.745 242.786C525.131 242.979 525.48 243.294 525.955 243.281C525.955 249.582 525.951 255.883 525.943 262.184C525.936 262.445 526.169 262.815 525.743 263Z" fill="#C7102E"/>
<path d="M0.254744 0C1.86562 1.02734 3.62236 1.78141 5.3257 2.63411C61.5173 30.7422 117.713 58.8442 173.913 86.94C174.31 87.1202 174.67 87.3724 174.975 87.6838H174.034C161.813 87.6838 149.591 87.6872 137.37 87.6941C136.584 87.6998 135.808 87.5143 135.11 87.1537C90.5274 64.8452 45.9407 42.5478 1.34988 20.2613C0.938945 20.0558 0.554722 19.7188 0.0431048 19.725C0.0431048 13.424 0.0472011 7.12292 0.0554198 0.821875C0.0636386 0.552711 -0.166467 0.184922 0.254744 0Z" fill="#C7102E"/>
</g>
<defs>
<clipPath id="clip0_896_560">
<rect width="526" height="263" fill="white"/>
</clipPath>
</defs>
</svg>
