<svg width="526" height="263" viewBox="0 0 526 263" fill="none" xmlns="http://www.w3.org/2000/svg">
<path d="M525.961 85.7195V177.284C525.305 177.256 524.65 177.206 523.986 177.203C510.897 177.189 497.806 177.179 484.714 177.172C330.178 177.172 175.652 177.177 21.1349 177.188C14.1019 177.188 7.06486 177.25 0.027832 177.284V85.7195C2.69732 85.3141 5.3905 85.5709 8.07184 85.5709C179.983 85.5483 351.903 85.539 523.832 85.5431C524.547 85.5431 525.289 85.3977 525.961 85.7195Z" fill="#0B42D2"/>
<path d="M525.96 85.7194C525.289 85.41 524.547 85.5431 523.84 85.5431C351.929 85.5431 180.009 85.5524 8.07949 85.5709C5.39815 85.5709 2.70497 85.3141 0.0354805 85.7194C0.0354805 57.5795 0.0249673 29.4374 0.00390625 1.29334C0.00390625 0.281565 0.17766 0 1.58349 0C175.864 0.0330039 350.144 0.0330039 524.424 0C525.834 0 526.004 0.281565 526.004 1.29334C525.957 29.4313 525.942 57.5733 525.96 85.7194Z" fill="#F7F7F7"/>
<path d="M0.0315703 177.284C7.0686 177.25 14.1056 177.188 21.1387 177.188C175.674 177.175 330.201 177.17 484.718 177.172C497.81 177.172 510.901 177.183 523.99 177.203C524.646 177.203 525.301 177.256 525.964 177.284C525.964 205.434 525.978 233.584 526.004 261.735C526.004 262.793 525.735 263 524.385 263C350.131 262.969 175.876 262.969 1.61906 263C0.268515 263 -7.68341e-08 262.793 0.00394887 261.735C0.0487036 233.584 0.0578966 205.434 0.0315703 177.284Z" fill="#F01F22"/>
</svg>
