<svg width="526" height="263" viewBox="0 0 526 263" fill="none" xmlns="http://www.w3.org/2000/svg">
<g clip-path="url(#clip0_896_584)">
<path fill-rule="evenodd" clip-rule="evenodd" d="M-0.00683594 2.26979C0.0326141 89.1601 0.0523166 176.055 0.0523166 262.956C174.364 262.936 348.67 262.951 522.969 263C525.434 263 525.993 262.586 525.993 260.735C525.919 174.582 525.919 88.4249 525.993 2.26486C525.993 0.414482 525.434 0 522.969 0C349.647 0.0559225 176.328 0.0559225 3.01107 0C0.545442 0 -0.00683594 0.419414 -0.00683594 2.26979Z" fill="#E20A17"/>
<path d="M227.301 92.8922C222.302 88.711 217.057 84.9955 211.023 82.4067C178.066 68.2958 140.165 91.1947 137.305 126.973C134.665 159.957 161.488 187.212 194.35 184.793C205.65 184.012 216.394 179.589 224.977 172.185C225.737 171.549 226.522 170.948 227.296 170.327C227.406 170.437 227.526 170.547 227.646 170.652C217.012 185.309 202.704 194.287 184.96 197.307C150.464 203.176 118.072 182.009 109.152 148.154C99.1834 110.323 124.946 71.0799 163.647 65.772C190.05 62.1467 211.458 71.3253 227.671 92.5517C227.531 92.6719 227.401 92.782 227.301 92.8922Z" fill="#FEFCFC"/>
<path d="M285.991 151.134C279.062 148.89 272.557 146.922 266.168 144.624C263.893 143.813 262.713 144.123 261.333 146.126C257.494 151.77 253.399 157.208 248.899 162.611V156.266C248.899 151.179 248.829 146.091 248.939 141.009C248.974 139.456 248.39 138.856 247.015 138.425C240.21 136.282 233.426 134.053 226.017 131.655C229.641 130.443 232.691 129.407 235.756 128.41C239.465 127.198 243.17 125.951 246.915 124.855C248.415 124.414 248.984 123.748 248.954 122.101C248.844 115.766 248.909 109.427 248.909 103.073V99.9229C250.504 102.076 251.674 103.628 252.819 105.201C255.859 109.377 258.969 113.503 261.873 117.769C262.873 119.241 263.763 119.387 265.348 118.846C272.012 116.573 278.727 114.439 285.926 112.091C285.321 113.092 285.001 113.668 284.611 114.209C281.001 119.216 277.457 124.249 273.717 129.141C272.362 130.909 272.122 132.075 273.622 133.983C277.427 138.825 280.926 143.908 284.541 148.9C284.951 149.496 285.316 150.107 285.991 151.134Z" fill="#FEFBFB"/>
</g>
<defs>
<clipPath id="clip0_896_584">
<rect width="526" height="263" fill="white"/>
</clipPath>
</defs>
</svg>
