<svg width="32" height="32" viewBox="0 0 32 32" fill="none" xmlns="http://www.w3.org/2000/svg">
<path d="M20.3334 7.99996C20.3334 10.3932 18.3933 12.3333 16.0001 12.3333C13.6069 12.3333 11.6667 10.3932 11.6667 7.99996C11.6667 5.60672 13.6069 3.66663 16.0001 3.66663C18.3933 3.66663 20.3334 5.60672 20.3334 7.99996Z" fill="#00A3F6" stroke="#00A3F6" stroke-width="2"/>
<path d="M24.3334 22.6667C24.3334 24.1008 23.5213 25.4936 22.0185 26.5669C20.5177 27.6391 18.393 28.3333 16.0001 28.3333C13.6071 28.3333 11.4825 27.6391 9.98165 26.5669C8.47889 25.4936 7.66675 24.1008 7.66675 22.6667C7.66675 21.2325 8.47889 19.8397 9.98165 18.7664C11.4825 17.6943 13.6071 17 16.0001 17C18.393 17 20.5177 17.6943 22.0185 18.7664C23.5213 19.8397 24.3334 21.2325 24.3334 22.6667Z" fill="#00A3F6" stroke="#00A3F6" stroke-width="2"/>
</svg>
