<svg width="32" height="32" viewBox="0 0 32 32" fill="none" xmlns="http://www.w3.org/2000/svg">
<path d="M28.3334 16C28.3334 9.18845 22.8116 3.66663 16.0001 3.66663C9.18857 3.66663 3.66675 9.18845 3.66675 16C3.66675 22.8115 9.18857 28.3333 16.0001 28.3333C22.8116 28.3333 28.3334 22.8115 28.3334 16Z" stroke="#CDCDCD" stroke-width="2"/>
<path d="M14.3608 13.5049L17.9948 12.3248C19.0307 11.9884 20.0112 12.9688 19.6747 14.0048L18.4947 17.6386C18.3628 18.0448 18.0444 18.3632 17.6383 18.495L14.0044 19.6752C12.9684 20.0116 11.988 19.0312 12.3245 17.9952L13.5046 14.3612C13.6364 13.9552 13.9548 13.6368 14.3608 13.5049Z" stroke="#CDCDCD" stroke-width="2"/>
</svg>
