<svg width="30" height="28" viewBox="0 0 30 28" fill="none" xmlns="http://www.w3.org/2000/svg">
<path fill-rule="evenodd" clip-rule="evenodd" d="M4.36097 10.7101L2.29148 12.3657C1.86022 12.7107 1.23093 12.6408 0.885916 12.2095C0.540907 11.7783 0.610828 11.149 1.04209 10.804L12.7095 1.47L12.7096 1.46999C14.0486 0.398677 15.9516 0.398676 17.2907 1.46999L17.2907 1.47L28.9581 10.804C29.3894 11.149 29.4593 11.7783 29.1143 12.2095C28.7693 12.6408 28.14 12.7107 27.7088 12.3657L25.6389 10.7098C25.6666 11.0792 25.6666 11.5309 25.6666 12.1233V12.1233V16.9181C25.6666 21.9464 25.6666 24.4607 24.1045 26.0227C22.5425 27.5848 20.0282 27.5848 15 27.5848C9.97163 27.5848 7.45749 27.5848 5.89538 26.0227C4.33329 24.4607 4.33329 21.9464 4.33329 16.9181V12.1233C4.33329 11.5311 4.33329 11.0794 4.36097 10.7101ZM11 19.9182C11 19.3659 11.4477 18.9182 12 18.9182H18C18.5523 18.9182 19 19.3659 19 19.9182C19 20.4705 18.5523 20.9182 18 20.9182H12C11.4477 20.9182 11 20.4705 11 19.9182Z" fill="#00A3F6"/>
</svg>
