<svg width="24" height="24" viewBox="0 0 24 24" fill="none" xmlns="http://www.w3.org/2000/svg">
<path d="M8.70711 13.7071C9.09763 13.3166 9.09763 12.6834 8.70711 12.2929C8.31658 11.9024 7.68342 11.9024 7.29289 12.2929L8.70711 13.7071ZM4 17L3.29289 16.2929L2.58579 17L3.29289 17.7071L4 17ZM7.29289 21.7071C7.68342 22.0976 8.31658 22.0976 8.70711 21.7071C9.09763 21.3166 9.09763 20.6834 8.70711 20.2929L7.29289 21.7071ZM20 18C20.5523 18 21 17.5523 21 17C21 16.4477 20.5523 16 20 16V18ZM7.29289 12.2929L3.29289 16.2929L4.70711 17.7071L8.70711 13.7071L7.29289 12.2929ZM3.29289 17.7071L7.29289 21.7071L8.70711 20.2929L4.70711 16.2929L3.29289 17.7071ZM4 18L20 18V16L4 16L4 18Z" fill="#292929"/>
<path d="M15.2929 10.2929C14.9024 10.6834 14.9024 11.3166 15.2929 11.7071C15.6834 12.0976 16.3166 12.0976 16.7071 11.7071L15.2929 10.2929ZM20 7L20.7071 7.70711L21.4142 7L20.7071 6.29289L20 7ZM16.7071 2.29289C16.3166 1.90237 15.6834 1.90237 15.2929 2.29289C14.9024 2.68342 14.9024 3.31658 15.2929 3.70711L16.7071 2.29289ZM4 6C3.44772 6 3 6.44771 3 7C3 7.55228 3.44772 8 4 8L4 6ZM16.7071 11.7071L20.7071 7.70711L19.2929 6.29289L15.2929 10.2929L16.7071 11.7071ZM20.7071 6.29289L16.7071 2.29289L15.2929 3.70711L19.2929 7.70711L20.7071 6.29289ZM20 6L4 6L4 8L20 8L20 6Z" fill="#292929"/>
</svg>
