<svg width="32" height="32" viewBox="0 0 32 32" fill="none" xmlns="http://www.w3.org/2000/svg">
<path fill-rule="evenodd" clip-rule="evenodd" d="M3.9999 16C3.9999 11.0004 3.9999 8.50053 5.27312 6.74809C5.68432 6.18213 6.18204 5.68441 6.748 5.27321C8.50044 4 11.0003 4 15.9999 4C20.9995 4 23.4994 4 25.2518 5.27321C25.8178 5.68441 26.3155 6.18213 26.7267 6.74809C27.9999 8.50053 27.9999 11.0004 27.9999 16C27.9999 20.9996 27.9999 23.4995 26.7267 25.2519C26.3155 25.8179 25.8178 26.3156 25.2518 26.7268C23.4994 28 20.9995 28 15.9999 28C11.0003 28 8.45967 28 6.70723 26.7268C6.14127 26.3156 5.64355 25.8179 5.23235 25.2519C3.99803 23.553 3.99864 21.1517 3.99983 16.4513C3.99987 16.3032 3.9999 16.1527 3.9999 16ZM9.33325 13.6666C9.33325 13.1143 9.78097 12.6666 10.3333 12.6666H21.6666C22.2189 12.6666 22.6666 13.1143 22.6666 13.6666C22.6666 14.2189 22.2189 14.6666 21.6666 14.6666H10.3333C9.78097 14.6666 9.33325 14.2189 9.33325 13.6666ZM9.33325 19C9.33325 18.4477 9.78097 18 10.3333 18H17.6666C18.2189 18 18.6666 18.4477 18.6666 19C18.6666 19.5523 18.2189 20 17.6666 20H10.3333C9.78097 20 9.33325 19.5523 9.33325 19Z" fill="#00A3F6"/>
</svg>
