<svg width="32" height="32" viewBox="0 0 32 32" fill="none" xmlns="http://www.w3.org/2000/svg">
<path fill-rule="evenodd" clip-rule="evenodd" d="M16.0001 3.66663C22.8116 3.66663 28.3334 9.18845 28.3334 16C28.3334 22.8115 22.8116 28.3333 16.0001 28.3333C9.18857 28.3333 3.66675 22.8115 3.66675 16C3.66675 9.18845 9.18857 3.66663 16.0001 3.66663ZM18.3037 13.2759C18.5627 13.1918 18.8077 13.437 18.7236 13.6958L18.7236 13.6959L17.5436 17.3298L17.5436 17.3298C17.5106 17.4314 17.431 17.511 17.3295 17.5439L17.3294 17.5439L13.6956 18.7241L13.6956 18.7241C13.4365 18.8082 13.1915 18.563 13.2756 18.304L14.4557 14.6701L14.4557 14.67C14.4886 14.5686 14.5683 14.489 14.6697 14.456L14.6697 14.456L18.3037 13.2759L18.3037 13.2759ZM17.686 11.3737C19.4987 10.785 21.2147 12.5006 20.6258 14.3136L20.6258 14.3137L19.4458 17.9475C19.2151 18.6582 18.6579 19.2154 17.9472 19.4461L17.9471 19.4462L14.3133 20.6263L14.3133 20.6263C12.5004 21.215 10.7846 19.4993 11.3733 17.6863L12.5535 14.0523L12.5535 14.0523C12.7843 13.3417 13.3414 12.7846 14.0519 12.5538L14.052 12.5538L17.6859 11.3737L17.686 11.3737Z" fill="#00A3F6"/>
</svg>
